<svg id="레이어_1" data-name="레이어 1" xmlns="http://www.w3.org/2000/svg" xmlns:xlink="http://www.w3.org/1999/xlink" viewBox="0 0 3443.33 768"><title>title</title><image width="1024" height="1024" transform="scale(0.75)" xlink:href="dev/sungmin603.github.io/my-portfolio/public/favicon.png"/><path d="M987.5,238.8h90.67V790.44H987.5Zm43.63,250.78h176.42q22,0,38.51-10.06t25.79-28.64q9.3-18.58,9.3-42.87,0-24.66-9.11-43.26a68.16,68.16,0,0,0-25.8-28.83q-16.7-10.25-38.69-10.24H1031.13V238.8h173.76q50.46,0,88.78,21.05a148.71,148.71,0,0,1,59.56,59.38q21.26,38.32,21.25,88.78t-21.25,88.58a147.78,147.78,0,0,1-59.56,59q-38.33,20.86-88.78,20.87H1031.13Z" transform="translate(-83 -103)"/><path d="M1455.71,776q-37.38-20.1-56.91-58.62t-19.54-92.76V560.52q0-53.49,19.54-91.62t56.91-58q37.36-19.92,89.73-19.92t89.72,19.92q37.36,19.92,56.91,58t19.54,91.62v65.26q0,53.88-19.54,92A134,134,0,0,1,1635.16,776q-37.37,20.12-89.72,20.11T1455.71,776Zm145.5-88.59q19.71-21.81,19.72-61.65V560.52q0-39.45-19.72-61.08t-55.77-21.63q-36.06,0-55.78,21.63t-19.72,61.08v65.26q0,39.84,19.53,61.65t56,21.82Q1581.47,709.25,1601.21,687.43Z" transform="translate(-83 -103)"/><path d="M1775.2,396.62h94.47V790.44H1775.2Zm196.9,86.32q-13.27-5.13-30.73-5.13-34.14,0-52.92,20.3t-18.78,56.34l-8-89.16q17.07-35.28,44.58-54.82t60.51-19.54q25.8,0,46.67,7.78a103.41,103.41,0,0,1,36.42,23l-55.39,76.26A58.75,58.75,0,0,0,1972.1,482.94Z" transform="translate(-83 -103)"/><path d="M2037.59,396.62h185.14v79.3H2037.59ZM2101.32,766q-23.15-26.36-23.14-78V282.05h90.68V675.48q0,14.41,5.69,22.19t16.69,7.78h31.49v86.88h-48.56Q2124.46,792.33,2101.32,766Z" transform="translate(-83 -103)"/><path d="M2252.17,396.62h204.49V474H2252.17Zm41.73-53.49q0-52.35,24.1-78.35t74.17-26h64.49v83.08H2407q-11,0-16.69,8.35t-5.69,21.63V790.44H2293.9Z" transform="translate(-83 -103)"/><path d="M2543.58,776q-37.36-20.1-56.9-58.62t-19.54-92.76V560.52q0-53.49,19.54-91.62t56.9-58q37.36-19.92,89.73-19.92T2723,410.85q37.36,19.92,56.91,58t19.54,91.62v65.26q0,53.88-19.54,92A134,134,0,0,1,2723,776q-37.38,20.12-89.73,20.11T2543.58,776Zm145.5-88.59q19.73-21.81,19.73-61.65V560.52q0-39.45-19.73-61.08t-55.77-21.63q-36,0-55.77,21.63t-19.73,61.08v65.26q0,39.84,19.54,61.65t56,21.82Q2669.36,709.25,2689.08,687.43Z" transform="translate(-83 -103)"/><path d="M2953.75,674.72q0,14.43,7.21,22.2t20.48,7.77h26.94v86.88h-49.32q-45.53,0-70.76-27.31t-25.23-77V238.8h90.68Z" transform="translate(-83 -103)"/><path d="M3046.55,238.8h90.29v90.67h-90.29Zm0,157.82h90.29V790.44h-90.29Z" transform="translate(-83 -103)"/><path d="M3270.43,776q-37.38-20.1-56.91-58.62T3194,624.64V560.52q0-53.49,19.54-91.62t56.91-58q37.37-19.92,89.73-19.92t89.72,19.92q37.36,19.92,56.91,58t19.54,91.62v65.26q0,53.88-19.54,92A134,134,0,0,1,3449.88,776q-37.37,20.12-89.72,20.11T3270.43,776Zm145.5-88.59q19.71-21.81,19.72-61.65V560.52q0-39.45-19.72-61.08t-55.77-21.63q-36.06,0-55.78,21.63t-19.72,61.08v65.26q0,39.84,19.53,61.65t56,21.82Q3396.19,709.25,3415.93,687.43Z" transform="translate(-83 -103)"/></svg>